<?xml version="1.0" standalone="no"?>
<!DOCTYPE svg PUBLIC "-//W3C//DTD SVG 20010904//EN"
 "http://www.w3.org/TR/2001/REC-SVG-20010904/DTD/svg10.dtd">
<svg version="1.0" xmlns="http://www.w3.org/2000/svg"
 width="245.000000pt" height="245.000000pt" viewBox="0 0 245.000000 245.000000"
 preserveAspectRatio="xMidYMid meet">
<metadata>
Created by potrace 1.11, written by Peter Selinger 2001-2013
</metadata>
<g transform="translate(0.000000,245.000000) scale(0.100000,-0.100000)"
fill="#000000" stroke="none">
<path d="M1050 1950 c-76 -8 -126 -22 -313 -91 -103 -38 -126 -51 -172 -96
-160 -154 -293 -359 -344 -528 -26 -87 -26 -99 -4 -90 20 9 34 9 80 -1 28 -5
33 -3 38 18 5 20 11 24 30 20 19 -3 27 2 36 22 7 14 20 26 29 26 10 0 23 7 30
15 9 11 16 12 32 2 17 -10 22 -9 34 9 13 19 18 20 39 10 14 -6 25 -17 25 -23
0 -16 -12 -17 -28 -1 -14 14 -42 -6 -42 -29 0 -11 -5 -13 -17 -8 -42 17 -51
16 -57 -3 -5 -14 -13 -18 -26 -15 -15 4 -21 -2 -26 -23 -4 -16 -18 -39 -33
-52 l-26 -23 25 6 c249 62 517 69 634 18 33 -14 70 -34 81 -44 11 -9 34 -24
51 -32 17 -9 43 -32 58 -51 l27 -35 -70 -35 c-92 -47 -181 -131 -241 -229 -39
-64 -50 -90 -50 -123 0 -44 15 -67 26 -40 3 8 12 12 20 9 10 -3 14 2 14 20 0
111 225 327 340 327 21 0 50 -50 50 -86 0 -9 -42 -60 -92 -113 -95 -99 -165
-209 -140 -218 6 -3 12 -11 12 -19 0 -22 26 -16 38 9 l11 22 0 -23 c1 -30 21
-18 21 13 0 44 38 110 96 168 32 31 63 57 70 57 30 0 29 -250 -1 -505 -8 -66
-15 -134 -15 -152 l0 -33 431 0 c367 0 430 2 426 14 -3 8 -1 58 4 113 27 268
14 569 -36 874 -3 14 -13 55 -24 90 -10 35 -26 96 -35 134 -24 97 -35 132 -62
193 -13 29 -33 78 -44 109 -27 78 -90 179 -147 237 -51 52 -157 126 -214 150
-19 8 -118 21 -223 30 -196 17 -220 17 -326 6z m-245 -174 c28 -9 45 -23 57
-47 26 -50 22 -72 -20 -126 -30 -38 -48 -51 -85 -60 -136 -37 -192 15 -155
139 14 46 43 78 90 94 44 16 65 16 113 0z m570 -27 c24 -6 59 -26 79 -44 34
-31 36 -36 36 -94 0 -78 -16 -109 -81 -157 -45 -33 -59 -38 -103 -37 -67 2
-131 28 -157 64 -11 16 -25 52 -31 81 -22 112 49 198 164 198 27 0 69 -5 93
-11z m-560 -458 c-9 -16 -25 -3 -18 15 4 10 9 12 15 6 6 -6 7 -15 3 -21z m-75
5 c0 -15 -18 -31 -26 -23 -7 7 7 37 17 37 5 0 9 -6 9 -14z m-90 -11 c17 -20
11 -24 -22 -18 -17 3 -25 10 -21 19 7 18 27 18 43 -1z m-275 -65 c-3 -5 -13
-10 -21 -10 -8 0 -12 5 -9 10 3 6 13 10 21 10 8 0 12 -4 9 -10z m-65 -40 c0
-5 -4 -10 -9 -10 -6 0 -13 5 -16 10 -3 6 1 10 9 10 9 0 16 -4 16 -10z"/>
<path d="M710 1665 c0 -25 5 -45 10 -45 6 0 10 20 10 45 0 25 -4 45 -10 45 -5
0 -10 -20 -10 -45z"/>
<path d="M1296 1645 c-3 -9 -6 -32 -6 -52 0 -48 24 -38 28 12 4 41 -11 68 -22
40z"/>
</g>
</svg>
